<svg width="22" height="20" viewBox="0 0 22 20" fill="none" xmlns="http://www.w3.org/2000/svg">
  <path d="M19.9943 2.0675C18.8279 0.898135 17.2819 0.18442 15.6353 0.0552799C13.9888 -0.0738601 12.3504 0.390091 11.016 1.36333C9.61606 0.322062 7.87359 -0.150097 6.13947 0.0419306C4.40535 0.233958 2.80839 1.07591 1.67019 2.39823C0.531986 3.72056 -0.0629177 5.42503 0.00527629 7.16842C0.0734703 8.9118 0.799697 10.5646 2.03771 11.794L8.87045 18.6377C9.44261 19.2008 10.2132 19.5164 11.016 19.5164C11.8188 19.5164 12.5894 19.2008 13.1615 18.6377L19.9943 11.794C21.2789 10.5014 22 8.7531 22 6.93074C22 5.10838 21.2789 3.36004 19.9943 2.0675V2.0675ZM18.4429 10.2756L11.6101 17.1083C11.5324 17.1868 11.4399 17.2492 11.3379 17.2917C11.2359 17.3342 11.1265 17.3561 11.016 17.3561C10.9055 17.3561 10.7961 17.3342 10.6941 17.2917C10.5921 17.2492 10.4996 17.1868 10.4218 17.1083L3.58911 10.2426C2.72622 9.36054 2.24304 8.17567 2.24304 6.94174C2.24304 5.70782 2.72622 4.52295 3.58911 3.6409C4.4684 2.77277 5.6543 2.28599 6.88994 2.28599C8.12559 2.28599 9.31149 2.77277 10.1908 3.6409C10.2931 3.74403 10.4148 3.82589 10.5488 3.88175C 0.6829 3.93761 10.8267 3.96637 10.972 3.96637C11.1172 3.96637 11.261 3.93761 11.3951 3.88175C11.5292 3.82589 11.6509 3.74403 11.7532 3.6409C12.6325 2.77277 13.8184 2.28599 15.054 2.28599C16.2897 2.28599 17.4756 2.77277 18.3549 3.6409C19.2296 4.51139 19.7287 5.68983 19.7451 6.92379C19.7616 8.15775 19.2941 9.34908 18.4429 10.2426V10.2756Z" fill="#27AE60"/>
</svg>
