<svg width="22" height="20" viewBox="0 0 22 20" fill="none" xmlns="http://www.w3.org/2000/svg">
<path d="M19.9943 2.0675C18.8279 0.898135 17.2819 0.18442 15.6353 0.0552799C13.9888 -0.07386 12.3504 0.390091 11.016 1.36333C9.61606 0.322062 7.87359 -0.150097 6.13947 0.0419306C4.40535 0.233958 2.80839 1.07591 1.67019 2.39823C0.531986 3.72056 -0.0629177 5.42503 0.00527629 7.16842C0.0734703 8.9118 0.799697 10.5646 2.03771 11.794L8.87045 18.6377C9.44261 19.2008 10.2132 19.5164 11.016 19.5164C11.8188 19.5164 12.5894 19.2008 13.1615 18.6377L19.9943 11.794C21.2789 10.5014 22 8.75311 22 6.93074C22 5.10838 21.2789 3.36004 19.9943 2.0675Z" fill="#27AE60"/>
</svg>
